<?xml version='1.0' encoding='UTF-8'?>
<svg xmlns="http://www.w3.org/2000/svg" data-name="Picoboard Icon" gorn="0" height="53mm" id="Picoboard_Icon" viewBox="0 0 59.53 150.24" width="21mm" >
    <desc >
        <referenceFile >_Pico X Breadboard View Non responsive-01-01.svg</referenceFile>
    </desc>
    <defs >
        <style >
      .cls-1 {
        fill: #3d3f38;
      }

      .cls-1, .cls-2, .cls-3, .cls-4, .cls-5, .cls-6, .cls-7, .cls-8, .cls-9, .cls-10, .cls-11, .cls-12, .cls-13 {
        stroke-width: 0px;
      }

      .cls-2, .cls-14 {
        fill: none;
      }

      .cls-3 {
        fill: #9a916c;
      }

      .cls-14 {
        stroke: #fcee21;
        stroke-width: 2px;
      }

      .cls-4 {
        fill: #30312e;
      }

      .cls-5 {
        fill: #33865f;
      }

      .cls-6 {
        fill: #ecf6fd;
      }

      .cls-15 {
        font-family: Droid Sans;
        font-size: 3.5px;
        letter-spacing: .1em;
      }

      .cls-15, .cls-9 {
        fill: #fff;
      }

      .cls-7 {
        fill: #006837;
      }

      .cls-8 {
        fill: #ccc;
      }

      .cls-10 {
        fill: #dbddda;
      }

      .cls-11 {
        fill: #363a44;
      }

      .cls-12 {
        fill: #3c3;
      }

      .cls-13 {
        fill: #004e29;
      }
    </style>
    </defs>
    <g gorn="0.2" id="PCB" >
        <path class="cls-2" d="M13.62,14c1.39,0,2.52-1.13,2.52-2.52s-1.13-2.52-2.52-2.52-2.52,1.13-2.52,2.52,1.13,2.52,2.52,2.52Z" />
        <path class="cls-2" d="M45.91,146.95c1.39,0,2.52-1.13,2.52-2.52s-1.13-2.52-2.52-2.52-2.52,1.13-2.52,2.52,1.13,2.52,2.52,2.52Z" />
        <path class="cls-2" d="M45.91,14c1.39,0,2.52-1.13,2.52-2.52s-1.13-2.52-2.52-2.52-2.52,1.13-2.52,2.52,1.13,2.52,2.52,2.52Z" />
        <circle class="cls-2" cx="13.62" cy="144.43" r="2.52" />
        <g >
            <g >
                <path class="cls-13" d="M59.53,15.54v-4.78s0,0,0,0c-.2,0-.38-.06-.54-.14v5.07c.16-.08.34-.14.54-.14,0,0,0,0,0,0Z" />
                <path class="cls-13" d="M59.53,22.74v-4.78s0,0,0,0c-.2,0-.38-.06-.54-.14v5.07c.16-.08.34-.14.54-.14,0,0,0,0,0,0Z" />
                <path class="cls-13" d="M59.53,29.94v-4.78s0,0,0,0c-.2,0-.38-.06-.54-.14v5.07c.16-.08.34-.14.54-.14,0,0,0,0,0,0Z" />
                <path class="cls-13" d="M59.53,37.13v-4.78s0,0,0,0c-.2,0-.38-.06-.54-.14v5.07c.16-.08.34-.14.54-.14,0,0,0,0,0,0Z" />
                <path class="cls-13" d="M59.53,44.33v-4.78s0,0,0,0c-.2,0-.38-.06-.54-.14v5.07c.16-.08.34-.14.54-.14,0,0,0,0,0,0Z" />
                <path class="cls-13" d="M59.53,51.53v-4.78s0,0,0,0c-.2,0-.38-.06-.54-.14v5.07c.16-.08.34-.14.54-.14,0,0,0,0,0,0Z" />
                <path class="cls-13" d="M59.53,58.73v-4.78s0,0,0,0c-.2,0-.38-.06-.54-.14v5.07c.16-.08.34-.14.54-.14,0,0,0,0,0,0Z" />
                <path class="cls-13" d="M59.53,65.93v-4.78s0,0,0,0c-.2,0-.38-.06-.54-.14v5.07c.16-.08.34-.14.54-.14,0,0,0,0,0,0Z" />
                <path class="cls-13" d="M59.53,73.13v-4.78s0,0,0,0c-.2,0-.38-.06-.54-.14v5.07c.16-.08.34-.14.54-.14,0,0,0,0,0,0Z" />
                <path class="cls-13" d="M59.53,80.33v-4.78s0,0,0,0c-.2,0-.38-.06-.54-.14v5.07c.16-.08.34-.14.54-.14,0,0,0,0,0,0Z" />
                <path class="cls-13" d="M59.53,87.53v-4.78s0,0,0,0c-.2,0-.38-.06-.54-.14v5.07c.16-.08.34-.14.54-.14,0,0,0,0,0,0Z" />
                <path class="cls-13" d="M59.53,94.73v-4.78s0,0,0,0c-.2,0-.38-.06-.54-.14v5.07c.16-.08.34-.14.54-.14,0,0,0,0,0,0Z" />
                <path class="cls-13" d="M59.53,101.93v-4.78s0,0,0,0c-.2,0-.38-.06-.54-.14v5.07c.16-.08.34-.14.54-.14,0,0,0,0,0,0Z" />
                <path class="cls-13" d="M59.53,109.13v-4.78s0,0,0,0c-.2,0-.38-.06-.54-.14v5.07c.16-.08.34-.14.54-.14,0,0,0,0,0,0Z" />
                <path class="cls-13" d="M59.53,116.33v-4.78s0,0,0,0c-.2,0-.38-.06-.54-.14v5.07c.16-.08.34-.14.54-.14,0,0,0,0,0,0Z" />
                <path class="cls-13" d="M59.53,123.53v-4.78s0,0,0,0c-.2,0-.38-.06-.54-.14v5.07c.16-.08.34-.14.54-.14,0,0,0,0,0,0Z" />
                <path class="cls-13" d="M59.53,130.73v-4.78s0,0,0,0c-.2,0-.38-.06-.54-.14v5.07c.16-.08.34-.14.54-.14,0,0,0,0,0,0Z" />
                <path class="cls-13" d="M59.53,137.93v-4.78s0,0,0,0c-.2,0-.38-.06-.54-.14v5.07c.16-.08.34-.14.54-.14,0,0,0,0,0,0Z" />
                <path class="cls-13" d="M59.53,145.13v-4.78s0,0,0,0c-.2,0-.38-.06-.54-.14v5.07c.16-.08.34-.14.54-.14,0,0,0,0,0,0Z" />
                <path class="cls-13" d="M59.53,147.55s0,0,0,0c-.2,0-.38-.06-.54-.14v1.58c0,.39-.32.71-.71.71h-20.25c.08.16.14.34.14.54,0,0,0,0,0,0h20.22c.63,0,1.13-.51,1.13-1.13v-1.55Z" />
                <path class="cls-13" d="M23.63,149.7c.08.16.14.34.14.54,0,0,0,0,0,0h4.78s0,0,0,0c0-.2.06-.38.14-.54h-5.07Z" />
                <path class="cls-13" d="M30.83,149.7c.08.16.14.34.14.54,0,0,0,0,0,0h4.78s0,0,0,0c0-.2.06-.38.14-.54h-5.07Z" />
                <path class="cls-13" d="M59.2,6l-.42.42c.13.13.21.31.21.5v1.56c.16-.08.34-.14.54-.14,0,0,0,0,0,0v-1.53c0-.31-.13-.6-.33-.8Z" />
            </g>
            <path class="cls-13" d="M21.5,149.7H1.25c-.2,0-.37-.08-.5-.21l-.42.42c.21.21.49.33.8.33h20.22s0,0,0,0c0-.2.06-.38.14-.54Z" />
        </g>
        <path class="cls-7" d="M.54,6.92v1.56c.39.2.67.6.67,1.07s-.28.87-.67,1.07v5.07c.39.2.67.6.67,1.07s-.28.87-.67,1.07v5.07c.39.2.67.6.67,1.07s-.28.87-.67,1.07v5.07c.39.2.67.6.67,1.07s-.28.87-.67,1.07v5.07c.39.2.67.6.67,1.07s-.28.87-.67,1.07v5.07c.39.2.67.6.67,1.07s-.28.87-.67,1.07v5.07c.39.2.67.6.67,1.07s-.28.87-.67,1.07v5.07c.39.2.67.6.67,1.07s-.28.87-.67,1.07v5.07c.39.2.67.6.67,1.07s-.28.87-.67,1.07v5.07c.39.2.67.6.67,1.07s-.28.87-.67,1.07v5.07c.39.2.67.6.67,1.07s-.28.87-.67,1.07v5.07c.39.2.67.6.67,1.07s-.28.87-.67,1.07v5.07c.39.2.67.6.67,1.07s-.28.87-.67,1.07v5.07c.39.2.67.6.67,1.07s-.28.87-.67,1.07v5.07c.39.2.67.6.67,1.07s-.28.87-.67,1.07v5.07c.39.2.67.6.67,1.07s-.28.87-.67,1.07v5.07c.39.2.67.6.67,1.07s-.28.87-.67,1.07v5.07c.39.2.67.6.67,1.07s-.28.87-.67,1.07v5.07c.39.2.67.6.67,1.07s-.28.87-.67,1.07v5.07c.39.2.67.6.67,1.07s-.28.87-.67,1.07v1.58c0,.39.32.71.71.71h20.25c.2-.39.6-.67,1.07-.67s.87.28,1.07.67h5.07c.2-.39.6-.67,1.07-.67s.87.28,1.07.67h5.07c.2-.39.6-.67,1.07-.67s.87.28,1.07.67h20.25c.39,0,.71-.32.71-.71v-1.58c-.39-.2-.67-.6-.67-1.07s.28-.87.67-1.07v-5.07c-.39-.2-.67-.6-.67-1.07s.28-.87.67-1.07v-5.07c-.39-.2-.67-.6-.67-1.07s.28-.87.67-1.07v-5.07c-.39-.2-.67-.6-.67-1.07s.28-.87.67-1.07v-5.07c-.39-.2-.67-.6-.67-1.07s.28-.87.67-1.07v-5.07c-.39-.2-.67-.6-.67-1.07s.28-.87.67-1.07v-5.07c-.39-.2-.67-.6-.67-1.07s.28-.87.67-1.07v-5.07c-.39-.2-.67-.6-.67-1.07s.28-.87.67-1.07v-5.07c-.39-.2-.67-.6-.67-1.07s.28-.87.67-1.07v-5.07c-.39-.2-.67-.6-.67-1.07s.28-.87.67-1.07v-5.07c-.39-.2-.67-.6-.67-1.07s.28-.87.67-1.07v-5.07c-.39-.2-.67-.6-.67-1.07s.28-.87.67-1.07v-5.07c-.39-.2-.67-.6-.67-1.07s.28-.87.67-1.07v-5.07c-.39-.2-.67-.6-.67-1.07s.28-.87.67-1.07v-5.07c-.39-.2-.67-.6-.67-1.07s.28-.87.67-1.07v-5.07c-.39-.2-.67-.6-.67-1.07s.28-.87.67-1.07v-5.07c-.39-.2-.67-.6-.67-1.07s.28-.87.67-1.07v-5.07c-.39-.2-.67-.6-.67-1.07s.28-.87.67-1.07v-5.07c-.39-.2-.67-.6-.67-1.07s.28-.87.67-1.07v-5.07c-.39-.2-.67-.6-.67-1.07s.28-.87.67-1.07v-1.56c0-.39-.32-.71-.71-.71H1.25c-.39,0-.71.32-.71.71ZM4.56,147.54c-.66,0-1.2-.54-1.2-1.2s.54-1.2,1.2-1.2,1.2.54,1.2,1.2-.54,1.2-1.2,1.2ZM5.76,139.14c0,.66-.54,1.2-1.2,1.2s-1.2-.54-1.2-1.2.54-1.2,1.2-1.2,1.2.54,1.2,1.2ZM5.76,131.94c0,.66-.54,1.2-1.2,1.2s-1.2-.54-1.2-1.2.54-1.2,1.2-1.2,1.2.54,1.2,1.2ZM5.76,124.74c0,.66-.54,1.2-1.2,1.2s-1.2-.54-1.2-1.2.54-1.2,1.2-1.2,1.2.54,1.2,1.2ZM5.76,117.54c0,.66-.54,1.2-1.2,1.2s-1.2-.54-1.2-1.2.54-1.2,1.2-1.2,1.2.54,1.2,1.2ZM5.76,110.34c0,.66-.54,1.2-1.2,1.2s-1.2-.54-1.2-1.2.54-1.2,1.2-1.2,1.2.54,1.2,1.2ZM5.76,103.14c0,.66-.54,1.2-1.2,1.2s-1.2-.54-1.2-1.2.54-1.2,1.2-1.2,1.2.54,1.2,1.2ZM5.76,95.94c0,.66-.54,1.2-1.2,1.2s-1.2-.54-1.2-1.2.54-1.2,1.2-1.2,1.2.54,1.2,1.2ZM5.76,88.74c0,.66-.54,1.2-1.2,1.2s-1.2-.54-1.2-1.2.54-1.2,1.2-1.2,1.2.54,1.2,1.2ZM5.76,81.54c0,.66-.54,1.2-1.2,1.2s-1.2-.54-1.2-1.2.54-1.2,1.2-1.2,1.2.54,1.2,1.2ZM5.76,74.34c0,.66-.54,1.2-1.2,1.2s-1.2-.54-1.2-1.2.54-1.2,1.2-1.2,1.2.54,1.2,1.2ZM5.76,67.14c0,.66-.54,1.2-1.2,1.2s-1.2-.54-1.2-1.2.54-1.2,1.2-1.2,1.2.54,1.2,1.2ZM5.76,59.94c0,.66-.54,1.2-1.2,1.2s-1.2-.54-1.2-1.2.54-1.2,1.2-1.2,1.2.54,1.2,1.2ZM5.76,52.74c0,.66-.54,1.2-1.2,1.2s-1.2-.54-1.2-1.2.54-1.2,1.2-1.2,1.2.54,1.2,1.2ZM5.76,45.54c0,.66-.54,1.2-1.2,1.2s-1.2-.54-1.2-1.2.54-1.2,1.2-1.2,1.2.54,1.2,1.2ZM5.76,38.34c0,.66-.54,1.2-1.2,1.2s-1.2-.54-1.2-1.2.54-1.2,1.2-1.2,1.2.54,1.2,1.2ZM5.76,31.15c0,.66-.54,1.2-1.2,1.2s-1.2-.54-1.2-1.2.54-1.2,1.2-1.2,1.2.54,1.2,1.2ZM5.76,23.95c0,.66-.54,1.2-1.2,1.2s-1.2-.54-1.2-1.2.54-1.2,1.2-1.2,1.2.54,1.2,1.2ZM5.76,16.75c0,.66-.54,1.2-1.2,1.2s-1.2-.54-1.2-1.2.54-1.2,1.2-1.2,1.2.54,1.2,1.2ZM5.76,9.54c0,.66-.54,1.2-1.2,1.2s-1.2-.54-1.2-1.2.54-1.2,1.2-1.2,1.2.54,1.2,1.2ZM13.62,146.95c-1.39,0-2.52-1.13-2.52-2.52s1.13-2.52,2.52-2.52,2.52,1.13,2.52,2.52-1.13,2.52-2.52,2.52ZM13.62,14c-1.39,0-2.52-1.13-2.52-2.52s1.13-2.52,2.52-2.52,2.52,1.13,2.52,2.52-1.13,2.52-2.52,2.52ZM22.56,147.54c-.66,0-1.2-.54-1.2-1.2s.54-1.2,1.2-1.2,1.2.54,1.2,1.2-.54,1.2-1.2,1.2ZM29.76,147.54c-.66,0-1.2-.54-1.2-1.2s.54-1.2,1.2-1.2,1.2.54,1.2,1.2-.54,1.2-1.2,1.2ZM53.77,146.34c0-.66.54-1.2,1.2-1.2s1.2.54,1.2,1.2-.54,1.2-1.2,1.2-1.2-.54-1.2-1.2ZM53.77,139.14c0-.66.54-1.2,1.2-1.2s1.2.54,1.2,1.2-.54,1.2-1.2,1.2-1.2-.54-1.2-1.2ZM53.77,131.94c0-.66.54-1.2,1.2-1.2s1.2.54,1.2,1.2-.54,1.2-1.2,1.2-1.2-.54-1.2-1.2ZM53.77,124.74c0-.66.54-1.2,1.2-1.2s1.2.54,1.2,1.2-.54,1.2-1.2,1.2-1.2-.54-1.2-1.2ZM53.77,117.54c0-.66.54-1.2,1.2-1.2s1.2.54,1.2,1.2-.54,1.2-1.2,1.2-1.2-.54-1.2-1.2ZM53.77,110.34c0-.66.54-1.2,1.2-1.2s1.2.54,1.2,1.2-.54,1.2-1.2,1.2-1.2-.54-1.2-1.2ZM53.77,103.14c0-.66.54-1.2,1.2-1.2s1.2.54,1.2,1.2-.54,1.2-1.2,1.2-1.2-.54-1.2-1.2ZM53.77,95.94c0-.66.54-1.2,1.2-1.2s1.2.54,1.2,1.2-.54,1.2-1.2,1.2-1.2-.54-1.2-1.2ZM53.77,88.74c0-.66.54-1.2,1.2-1.2s1.2.54,1.2,1.2-.54,1.2-1.2,1.2-1.2-.54-1.2-1.2ZM53.77,81.54c0-.66.54-1.2,1.2-1.2s1.2.54,1.2,1.2-.54,1.2-1.2,1.2-1.2-.54-1.2-1.2ZM53.77,74.34c0-.66.54-1.2,1.2-1.2s1.2.54,1.2,1.2-.54,1.2-1.2,1.2-1.2-.54-1.2-1.2ZM53.77,67.14c0-.66.54-1.2,1.2-1.2s1.2.54,1.2,1.2-.54,1.2-1.2,1.2-1.2-.54-1.2-1.2ZM53.77,59.94c0-.66.54-1.2,1.2-1.2s1.2.54,1.2,1.2-.54,1.2-1.2,1.2-1.2-.54-1.2-1.2ZM53.77,52.74c0-.66.54-1.2,1.2-1.2s1.2.54,1.2,1.2-.54,1.2-1.2,1.2-1.2-.54-1.2-1.2ZM53.77,45.54c0-.66.54-1.2,1.2-1.2s1.2.54,1.2,1.2-.54,1.2-1.2,1.2-1.2-.54-1.2-1.2ZM53.77,38.34c0-.66.54-1.2,1.2-1.2s1.2.54,1.2,1.2-.54,1.2-1.2,1.2-1.2-.54-1.2-1.2ZM53.77,31.15c0-.66.54-1.2,1.2-1.2s1.2.54,1.2,1.2-.54,1.2-1.2,1.2-1.2-.54-1.2-1.2ZM53.77,23.95c0-.66.54-1.2,1.2-1.2s1.2.54,1.2,1.2-.54,1.2-1.2,1.2-1.2-.54-1.2-1.2ZM53.77,16.75c0-.66.54-1.2,1.2-1.2s1.2.54,1.2,1.2-.54,1.2-1.2,1.2-1.2-.54-1.2-1.2ZM53.77,9.54c0-.66.54-1.2,1.2-1.2s1.2.54,1.2,1.2-.54,1.2-1.2,1.2-1.2-.54-1.2-1.2ZM36.96,147.54c-.66,0-1.2-.54-1.2-1.2s.54-1.2,1.2-1.2,1.2.54,1.2,1.2-.54,1.2-1.2,1.2ZM45.91,146.95c-1.39,0-2.52-1.13-2.52-2.52s1.13-2.52,2.52-2.52,2.52,1.13,2.52,2.52-1.13,2.52-2.52,2.52ZM45.91,14c-1.39,0-2.52-1.13-2.52-2.52s1.13-2.52,2.52-2.52,2.52,1.13,2.52,2.52-1.13,2.52-2.52,2.52Z" />
        <g >
            <g >
                <path class="cls-5" d="M58.39,5.67H1.13c-.63,0-1.13.51-1.13,1.13v1.53s0,0,0,0c.2,0,.38.06.54.14v-1.56c0-.39.32-.71.71-.71h57.03c.2,0,.37.08.5.21l.42-.42c-.21-.21-.49-.33-.8-.33Z" />
                <path class="cls-5" d="M0,17.95v4.78s0,0,0,0c.2,0,.38.06.54.14v-5.07c-.16.08-.34.14-.54.14,0,0,0,0,0,0Z" />
                <path class="cls-5" d="M0,25.16v4.78s0,0,0,0c.2,0,.38.06.54.14v-5.07c-.16.08-.34.14-.54.14,0,0,0,0,0,0Z" />
                <path class="cls-5" d="M0,32.35v4.78s0,0,0,0c.2,0,.38.06.54.14v-5.07c-.16.08-.34.14-.54.14,0,0,0,0,0,0Z" />
                <path class="cls-5" d="M0,39.55v4.78s0,0,0,0c.2,0,.38.06.54.14v-5.07c-.16.08-.34.14-.54.14,0,0,0,0,0,0Z" />
                <path class="cls-5" d="M0,46.75v4.78s0,0,0,0c.2,0,.38.06.54.14v-5.07c-.16.08-.34.14-.54.14,0,0,0,0,0,0Z" />
                <path class="cls-5" d="M0,53.95v4.78s0,0,0,0c.2,0,.38.06.54.14v-5.07c-.16.08-.34.14-.54.14,0,0,0,0,0,0Z" />
                <path class="cls-5" d="M0,61.15v4.78s0,0,0,0c.2,0,.38.06.54.14v-5.07c-.16.08-.34.14-.54.14,0,0,0,0,0,0Z" />
                <path class="cls-5" d="M0,68.35v4.78s0,0,0,0c.2,0,.38.06.54.14v-5.07c-.16.08-.34.14-.54.14,0,0,0,0,0,0Z" />
                <path class="cls-5" d="M0,75.55v4.78s0,0,0,0c.2,0,.38.06.54.14v-5.07c-.16.08-.34.14-.54.14,0,0,0,0,0,0Z" />
                <path class="cls-5" d="M0,82.75v4.78s0,0,0,0c.2,0,.38.06.54.14v-5.07c-.16.08-.34.14-.54.14,0,0,0,0,0,0Z" />
                <path class="cls-5" d="M0,89.95v4.78s0,0,0,0c.2,0,.38.06.54.14v-5.07c-.16.08-.34.14-.54.14,0,0,0,0,0,0Z" />
                <path class="cls-5" d="M0,97.15v4.78s0,0,0,0c.2,0,.38.06.54.14v-5.07c-.16.08-.34.14-.54.14,0,0,0,0,0,0Z" />
                <path class="cls-5" d="M0,104.35v4.78s0,0,0,0c.2,0,.38.06.54.14v-5.07c-.16.08-.34.14-.54.14,0,0,0,0,0,0Z" />
                <path class="cls-5" d="M0,111.55v4.78s0,0,0,0c.2,0,.38.06.54.14v-5.07c-.16.08-.34.14-.54.14,0,0,0,0,0,0Z" />
                <path class="cls-5" d="M0,118.75v4.78s0,0,0,0c.2,0,.38.06.54.14v-5.07c-.16.08-.34.14-.54.14,0,0,0,0,0,0Z" />
                <path class="cls-5" d="M0,125.95v4.78s0,0,0,0c.2,0,.38.06.54.14v-5.07c-.16.08-.34.14-.54.14,0,0,0,0,0,0Z" />
                <path class="cls-5" d="M0,133.15v4.78s0,0,0,0c.2,0,.38.06.54.14v-5.07c-.16.08-.34.14-.54.14,0,0,0,0,0,0Z" />
                <path class="cls-5" d="M0,140.35v4.78s0,0,0,0c.2,0,.38.06.54.14v-5.07c-.16.08-.34.14-.54.14,0,0,0,0,0,0Z" />
                <path class="cls-5" d="M0,10.75v4.78s0,0,0,0c.2,0,.38.06.54.14v-5.07c-.16.08-.34.14-.54.14,0,0,0,0,0,0Z" />
            </g>
            <path class="cls-5" d="M.33,149.9l.42-.42c-.13-.13-.21-.31-.21-.5v-1.58c-.16.08-.34.14-.54.14,0,0,0,1.55,0,1.55,0,.31.13.6.33.8Z" />
        </g>
    </g>
    <g data-name="Mounting Holes" gorn="0.3" id="Mounting_Holes" >
        <circle class="cls-14" cx="13.62" cy="144.43" r="3.52" />
        <circle class="cls-14" cx="45.91" cy="144.43" r="3.52" />
        <circle class="cls-14" cx="13.62" cy="11.48" r="3.52" />
        <circle class="cls-14" cx="45.91" cy="11.48" r="3.52" />
    </g>
    <rect class="cls-4" data-name="Pico 2040" gorn="0.4" height="19.97" id="Pico_2040" width="19.97" x="19.78"  y="67.97"/>
    <g gorn="0.5" id="USB" >
        <rect class="cls-11" height="15.07" rx=".57" ry=".57" width="19.84" x="19.84"  y="1.94"/>
        <path class="cls-10" d="M21.26,0c-.25,0-.47.16-.54.4l-.31,1.03-.57.57v14.44c0,.31.25.57.57.57h3.46c.16,0,.28-.13.28-.28v-.83c0-.21-.11-.4-.3-.5l-1.93-1.05c-.18-.1-.3-.29-.3-.5v-.83h1.26v-.95h1.94v.95h1.14v1.97c0,.31.25.57.57.57h.92v-1.02h4.59v1.02h.92c.31,0,.57-.25.57-.57v-1.97h1.14v-.95h1.94v.95h1.26v.83c0,.21-.11.4-.3.5l-1.93,1.05c-.18.1-.3.29-.3.5v.83c0,.16.13.28.28.28h3.46c.31,0,.57-.25.57-.57V2l-.57-.57-.31-1.03c-.07-.24-.29-.4-.54-.4h-17Z" />
        <path class="cls-10" d="M20.46,2.88c-.25-.33-.5-.67-.73-1.05-.23-.38-.4-.83-.48-1.25h0c-.04-.2.08-.37.27-.41.17-.03.34.07.39.23.22.72.74,1.24,1.31,1.83.2.2.19.51,0,.71-.2.2-.51.19-.71,0-.01-.02-.03-.04-.05-.05Z" />
        <path class="cls-10" d="M38.31,2.23c.57-.59,1.09-1.1,1.31-1.83.06-.18.25-.28.42-.22.17.05.26.22.23.39h0c-.08.44-.25.89-.48,1.27-.23.38-.48.72-.73,1.05-.17.22-.48.27-.7.1-.22-.17-.27-.48-.1-.7.01-.02.03-.04.05-.05Z" />
    </g>
    <g data-name="Components Large" gorn="0.6" id="Components_Large" >
        <g transform="translate(32.02 4.83) rotate(90)" >
            <g >
                <g >
                    <g >
                        <rect class="cls-6" height="4.25" width="2.83" x="12.18"  y="16.3"/>
                    </g>
                </g>
            </g>
        </g>
        <g >
            <g transform="translate(39.55 77.01) rotate(180)" >
                <g >
                    <g >
                        <g >
                            <rect class="cls-8" height="11.34" rx=".57" ry=".57" width="8.5" x="15.52"  y="32.84"/>
                        </g>
                    </g>
                </g>
            </g>
            <rect class="cls-9" height="9.92" rx="3.54" ry="3.54" width="7.09" x="16.23"  y="33.54"/>
            <path class="cls-9" d="M15.52,33.4v1.06c0,.51.61.76.97.4l1.06-1.06c.36-.36.1-.97-.4-.97h-1.06c-.31,0-.57.25-.57.57Z" />
            <path class="cls-9" d="M23.46,32.84h-1.06c-.51,0-.76.61-.4.97l1.06,1.06c.36.36.97.1.97-.4v-1.06c0-.31-.25-.57-.57-.57Z" />
            <path class="cls-9" d="M24.03,43.58v-1.06c0-.51-.61-.76-.97-.4l-1.06,1.06c-.36.36-.1.97.4.97h1.06c.31,0,.57-.25.57-.57Z" />
            <path class="cls-9" d="M16.09,44.14h1.06c.51,0,.76-.61.4-.97l-1.06-1.06c-.36-.36-.97-.1-.97.4v1.06c0,.31.25.57.57.57Z" />
        </g>
        <circle class="cls-12" cx="12.94" cy="18.5" r=".71" />
    </g>
    <g gorn="0.7" id="Silkscreen" >
        <g transform="translate(6.95 10.74)" >
            <g >
                <g >
                    <g >
                        <g class="cls-15" >
                            <text x="0"  y="0">1</text>
                        </g>
                    </g>
                </g>
            </g>
        </g>
        <g transform="translate(6.95 17.94)" >
            <g >
                <g >
                    <g >
                        <g class="cls-15" >
                            <text x="0"  y="0">2</text>
                        </g>
                    </g>
                </g>
            </g>
        </g>
        <path class="cls-9" d="M39.9,125.02c-.12-1.21-.66-2.28-1.43-2.84-.13-.47-.35-.91-.66-1.29-.1-1.04-.61-1.99-1.41-2.66.13-.11.24-.25.33-.4.93-.42,1.59-1.29,1.67-1.94.47-.44.76-1.03.81-1.67.01-.26-.03-.52-.14-.75.4-.38.54-.95.37-1.48-.28-.81-1.26-1.33-2.57-1.39-.4-.34-.91-.51-1.43-.49-.26,0-.52.03-.77.1-.24-.11-.5-.16-.76-.15-.51,0-1.01.14-1.45.39-.06,0-.12-.01-.17-.01-.65,0-1.3.45-1.63.72-.32.26-.61.56-.86.89-.25-.33-.54-.63-.86-.89-.33-.27-.98-.72-1.63-.72-.06,0-.12,0-.17.01-.44-.25-.94-.39-1.45-.39-.26,0-.52.05-.76.15-.25-.06-.51-.09-.77-.1-.52-.02-1.03.15-1.43.49-1.31.06-2.29.58-2.57,1.39-.17.52-.02,1.1.37,1.48-.11.24-.16.49-.14.75.05.64.34,1.24.81,1.67.08.65.73,1.53,1.67,1.94.08.15.19.28.33.4-.8.67-1.31,1.62-1.41,2.66-.31.38-.53.82-.66,1.29-.77.57-1.31,1.64-1.43,2.84-.12,1.2.21,2.32.88,3.02.12.6.37,1.17.73,1.67.08.94.47,1.83,1.1,2.54.63.73,1.48,1.23,2.42,1.44.56.52,1.22.93,1.93,1.2.82.79,1.91,1.21,3.04,1.19,1.13.02,2.23-.4,3.04-1.19.72-.27,1.37-.68,1.93-1.2.94-.21,1.79-.71,2.42-1.44.63-.7,1.02-1.59,1.1-2.54.36-.5.61-1.07.73-1.67.67-.71,1-1.83.88-3.02ZM35.38,121.36c-.81-.45-1.52-1.05-2.11-1.77-.76-.9-.26-1.3.93-1.08.92.25,1.69.89,2.09,1.75.42,1.12.09,1.67-.91,1.09ZM32.25,111.8c.05-.02.11.02.13.07,0,.01,0,.03,0,.04-.03.31.15.27.2.22.49-.61,1-.74,1.47-.7.06,0,.1.06.09.11,0,.02,0,.04-.02.05-.18.27.01.32.09.28.75-.47,1.47-.47,1.74-.27.05.03.06.1.02.14,0,0,0,.01-.01.02-.28.24-.12.35-.02.32.76-.27,1.81-.03,2.18.28.04.04.05.1.01.15,0,0,0,0-.01.01-.44.34-.73.84-.8,1.39-.02.18.28.14.41.11.06-.01.11.02.13.07,0,0,0,.01,0,.02.01.44-.4.92-1.02,1.33-.08.06-.07.19.12.19.06,0,.1.05.1.1,0,.02,0,.04-.01.05-.22.41-.52.79-1.54,1.06-.06.01-.09.07-.07.13,0,.03.03.06.06.07.05.01.08.07.07.12,0,.02-.02.04-.04.05-1.01.87-3.59.53-3.91-.94,0-.03,0-.06.02-.08,1.09-1.46,2.57-2.58,4.27-3.25.04-.02.06-.06.05-.1-.01-.04-.05-.06-.09-.05-1.86.27-3.53,1.28-4.63,2.79-.03.04-.09.05-.13.03-1.65-.85-.29-3.36,1.17-3.81ZM31.79,119c1.43,1.19-.21,2.04-2,2.04s-3.43-.84-2-2.04c1.17-.94,2.83-.94,3.99,0ZM22.56,115.78s-.01-.11.04-.14c.02,0,.03-.01.05-.01.19,0,.2-.14.12-.19-.62-.41-1.03-.89-1.02-1.33,0-.06.05-.1.11-.1,0,0,.01,0,.02,0,.13.03.43.07.41-.11-.07-.55-.35-1.05-.8-1.39-.04-.04-.05-.1,0-.15,0,0,0,0,.01-.01.37-.31,1.42-.55,2.18-.28.1.04.25-.08-.02-.32-.04-.04-.05-.1,0-.15,0,0,.01-.01.02-.01.27-.2.99-.2,1.74.27.07.05.27,0,.09-.28-.04-.04-.03-.11.02-.15.02-.01.03-.02.05-.02.46-.04.98.1,1.47.7.04.05.23.09.2-.22,0-.06.04-.11.09-.11.01,0,.03,0,.04,0,1.46.45,2.82,2.96,1.17,3.81-.05.02-.1.01-.13-.03-1.11-1.52-2.78-2.52-4.63-2.79-.04,0-.09.02-.09.07,0,.04.02.07.05.09,1.7.66,3.17,1.79,4.27,3.25.02.02.02.05.02.08-.33,1.47-2.9,1.81-3.91.94-.04-.03-.05-.1-.02-.14.01-.02.03-.03.05-.04.05-.02.08-.08.06-.14-.01-.03-.04-.05-.07-.06-1.02-.26-1.32-.65-1.54-1.06ZM23.3,120.27c.4-.87,1.17-1.51,2.09-1.75,1.19-.22,1.68.18.93,1.08-.58.72-1.3,1.32-2.11,1.77-1,.57-1.33.03-.91-1.09ZM22.46,126.84c-.39.78-.88.52-1.24-.32-.33-.9-.25-1.9.24-2.73.53-.9,1.06-.87,1.27-.1.27,1.05.17,2.17-.28,3.16ZM25.05,132.36c-1.33-.34-2.3-1.48-2.4-2.85.2-4.63,6.87,3.64,2.4,2.85ZM25.18,126.59c-1.12-.65-1.41-2.23-.66-3.53.75-1.31,2.27-1.84,3.39-1.19,1.12.65,1.41,2.23.66,3.53s-2.27,1.84-3.39,1.19ZM31.66,134.12c-1.11.8-2.62.8-3.73,0-1.11-.77,0-1.65,1.87-1.65s2.98.88,1.87,1.65ZM29.8,131.32c-1.43,0-2.6-1-2.6-2.23s1.16-2.23,2.6-2.23,2.6,1,2.6,2.23-1.16,2.23-2.6,2.23ZM31.02,125.4c-.75-1.31-.46-2.89.66-3.53,1.12-.65,2.64-.11,3.39,1.19.75,1.31.46,2.89-.66,3.53-1.12.65-2.64.11-3.39-1.19ZM34.55,132.36c-4.47.79,2.2-7.48,2.4-2.85-.11,1.37-1.07,2.51-2.4,2.85ZM38.37,126.52c-.35.84-.84,1.1-1.24.32-.45-.99-.54-2.1-.28-3.16.21-.76.74-.8,1.27.1.48.83.57,1.83.24,2.73Z" />
    </g>
    <g data-name="Chip print" gorn="0.8" id="Chip_print" >
        <path class="cls-1" d="M33.85,78.75c-.05-.49-.27-.92-.58-1.15-.05-.19-.14-.37-.27-.52-.04-.42-.25-.81-.57-1.08.05-.05.1-.1.13-.16.38-.17.64-.52.68-.79.19-.18.31-.42.33-.68,0-.1-.01-.21-.06-.31.16-.15.22-.39.15-.6-.11-.33-.51-.54-1.04-.56-.16-.14-.37-.21-.58-.2-.11,0-.21.01-.31.04-.1-.04-.2-.06-.31-.06-.21,0-.41.06-.59.16-.02,0-.05,0-.07,0-.26,0-.53.18-.66.29-.13.11-.25.23-.35.36-.1-.13-.22-.26-.35-.36-.13-.11-.4-.29-.66-.29-.02,0-.05,0-.07,0-.18-.1-.38-.16-.59-.16-.11,0-.21.02-.31.06-.1-.03-.21-.04-.31-.04-.21,0-.42.06-.58.2-.53.02-.93.23-1.04.56-.07.21-.01.44.15.6-.04.1-.06.2-.06.31.02.26.14.5.33.68.03.26.3.62.68.79.03.06.08.12.13.16-.32.27-.53.66-.57,1.08-.12.15-.22.33-.27.52-.31.23-.53.66-.58,1.15-.05.48.09.94.36,1.22.05.24.15.47.29.68.03.38.19.74.44,1.03.26.29.6.5.98.58.23.21.49.38.78.48.33.32.77.49,1.23.48.46,0,.9-.16,1.23-.48.29-.11.56-.27.78-.48.38-.08.72-.29.98-.58.26-.28.41-.65.44-1.03.15-.2.25-.43.29-.68.27-.29.4-.74.36-1.22ZM32.02,77.26c-.33-.18-.62-.42-.85-.71-.31-.36-.11-.53.37-.44.37.1.68.36.85.71.17.46.04.67-.37.44ZM30.76,73.39s.05,0,.05.03c0,0,0,.01,0,.02-.01.13.06.11.08.09.2-.25.41-.3.59-.28.02,0,.04.02.04.05,0,0,0,.02,0,.02-.07.11,0,.13.04.11.3-.19.59-.19.7-.11.02.01.02.04,0,.06,0,0,0,0,0,0-.11.1-.05.14,0,.13.31-.11.73-.01.88.11.02.01.02.04,0,.06,0,0,0,0,0,0-.18.14-.29.34-.32.56,0,.07.11.06.17.05.02,0,.05,0,.05.03,0,0,0,0,0,0,0,.18-.16.37-.41.54-.03.02-.03.08.05.08.02,0,.04.02.04.04,0,0,0,.01,0,.02-.09.17-.21.32-.62.43-.02,0-.04.03-.03.05,0,.01.01.02.02.03.02,0,.03.03.03.05,0,0,0,.02-.01.02-.41.35-1.45.21-1.58-.38,0-.01,0-.02,0-.03.44-.59,1.04-1.05,1.73-1.31.02,0,.03-.03.02-.04,0-.01-.02-.02-.04-.02-.75.11-1.43.52-1.88,1.13-.01.02-.04.02-.05.01-.67-.34-.12-1.36.47-1.54ZM30.57,76.31c.58.48-.08.82-.81.82s-1.39-.34-.81-.82c.47-.38,1.14-.38,1.62,0ZM26.83,75s0-.05.01-.06c0,0,.01,0,.02,0,.08,0,.08-.06.05-.08-.25-.17-.42-.36-.41-.54,0-.02.02-.04.04-.04,0,0,0,0,0,0,.05.01.17.03.17-.05-.03-.22-.14-.43-.32-.56-.02-.02-.02-.04,0-.06,0,0,0,0,0,0,.15-.13.57-.22.88-.11.04.01.1-.03,0-.13-.02-.02-.02-.04,0-.06,0,0,0,0,0,0,.11-.08.4-.08.7.11.03.02.11,0,.04-.11-.01-.02-.01-.04,0-.06,0,0,.01,0,.02,0,.19-.02.4.04.59.28.02.02.09.04.08-.09,0-.02.01-.04.04-.05,0,0,.01,0,.02,0,.59.18,1.14,1.2.47,1.54-.02,0-.04,0-.05-.01-.45-.61-1.12-1.02-1.88-1.13-.02,0-.03,0-.04.03,0,.02,0,.03.02.04.69.27,1.28.72,1.73,1.31,0,0,.01.02,0,.03-.13.59-1.17.73-1.58.38-.02-.01-.02-.04,0-.06,0,0,.01-.01.02-.01.02,0,.03-.03.02-.06,0-.01-.02-.02-.03-.02-.41-.11-.53-.26-.62-.43ZM27.13,76.82c.16-.35.47-.61.85-.71.48-.09.68.07.37.44-.24.29-.53.53-.85.71-.41.23-.54.01-.37-.44ZM26.79,79.48c-.16.32-.36.21-.5-.13-.13-.36-.1-.77.1-1.11.21-.36.43-.35.52-.04.11.43.07.88-.11,1.28ZM27.84,81.71c-.54-.14-.93-.6-.97-1.15.08-1.87,2.78,1.47.97,1.15ZM27.9,79.38c-.45-.26-.57-.9-.27-1.43.31-.53.92-.74,1.37-.48.45.26.57.9.27,1.43s-.92.74-1.37.48ZM30.52,82.43c-.45.33-1.06.33-1.51,0-.45-.31,0-.67.76-.67s1.2.36.76.67ZM29.76,81.29c-.58,0-1.05-.4-1.05-.9s.47-.9,1.05-.9,1.05.4,1.05.9-.47.9-1.05.9ZM30.26,78.9c-.31-.53-.19-1.17.27-1.43.45-.26,1.07-.05,1.37.48.31.53.19,1.17-.27,1.43-.45.26-1.07.05-1.37-.48ZM31.69,81.71c-1.81.32.89-3.03.97-1.15-.04.55-.43,1.02-.97,1.15ZM33.23,79.35c-.14.34-.34.45-.5.13-.18-.4-.22-.85-.11-1.28.09-.31.3-.32.52.04.2.34.23.74.1,1.11Z" />
    </g>
    <g >
        <path class="cls-3" d="M6.54,16.75c0-1.09-.89-1.98-1.98-1.98H0v.77s0,0,0,0c.67,0,1.21.54,1.21,1.21S.67,17.95,0,17.95c0,0,0,0,0,0v.77h4.56c1.09,0,1.98-.89,1.98-1.98ZM4.56,17.94c-.66,0-1.2-.54-1.2-1.2s.54-1.2,1.2-1.2,1.2.54,1.2,1.2-.54,1.2-1.2,1.2Z" gorn="0.9.0" id="connector1pin" />
        <rect fill="none" gorn="0.9.1" height="0.0079" id="connector1terminal" stroke="none" stroke-width="0" width="0.01308" x="4.58154"  y="16.7411"/>
        <path class="cls-3" d="M6.54,21.97H0v.77s0,0,0,0c.67,0,1.21.54,1.21,1.21S.67,25.16,0,25.16c0,0,0,0,0,0v.77h6.54v-3.95ZM4.56,25.14c-.66,0-1.2-.54-1.2-1.2s.54-1.2,1.2-1.2,1.2.54,1.2,1.2-.54,1.2-1.2,1.2Z" gorn="0.9.2" id="connector2pin" />
        <rect fill="none" gorn="0.9.3" height="0.00792" id="connector2terminal" stroke="none" stroke-width="0" width="0.01308" x="4.58154"  y="23.946"/>
        <path class="cls-3" d="M6.54,31.15c0-1.09-.89-1.98-1.98-1.98H0v.77s0,0,0,0c.67,0,1.21.54,1.21,1.21S.67,32.35,0,32.35c0,0,0,0,0,0v.77h4.56c1.09,0,1.98-.89,1.98-1.98ZM4.56,32.34c-.66,0-1.2-.54-1.2-1.2s.54-1.2,1.2-1.2,1.2.54,1.2,1.2-.54,1.2-1.2,1.2Z" gorn="0.9.4" id="connector3pin" />
        <rect fill="none" gorn="0.9.5" height="0.0079" id="connector3terminal" stroke="none" stroke-width="0" width="0.01308" x="4.58154"  y="31.141"/>
        <path class="cls-3" d="M6.54,38.34c0-1.09-.89-1.98-1.98-1.98H0v.77s0,0,0,0c.67,0,1.21.54,1.21,1.21S.67,39.55,0,39.55c0,0,0,0,0,0v.77h4.56c1.09,0,1.98-.89,1.98-1.98ZM4.56,39.54c-.66,0-1.2-.54-1.2-1.2s.54-1.2,1.2-1.2,1.2.54,1.2,1.2-.54,1.2-1.2,1.2Z" gorn="0.9.6" id="connector4pin" />
        <rect fill="none" gorn="0.9.7" height="0.00792" id="connector4terminal" stroke="none" stroke-width="0" width="0.01308" x="4.49916"  y="38.2537"/>
        <path class="cls-3" d="M6.54,45.54c0-1.09-.89-1.98-1.98-1.98H0v.77s0,0,0,0c.67,0,1.21.54,1.21,1.21S.67,46.75,0,46.75c0,0,0,0,0,0v.77h4.56c1.09,0,1.98-.89,1.98-1.98ZM4.56,46.74c-.66,0-1.2-.54-1.2-1.2s.54-1.2,1.2-1.2,1.2.54,1.2,1.2-.54,1.2-1.2,1.2Z" gorn="0.9.8" id="connector5pin" />
        <path class="cls-3" d="M6.54,52.74c0-1.09-.89-1.98-1.98-1.98H0v.77s0,0,0,0c.67,0,1.21.54,1.21,1.21S.67,53.95,0,53.95c0,0,0,0,0,0v.77h4.56c1.09,0,1.98-.89,1.98-1.98ZM4.56,53.94c-.66,0-1.2-.54-1.2-1.2s.54-1.2,1.2-1.2,1.2.54,1.2,1.2-.54,1.2-1.2,1.2Z" gorn="0.9.9" id="connector6pin" />
        <rect fill="none" gorn="0.9.10" height="0.00792" id="connector6terminal" stroke="none" stroke-width="0" width="0.01308" x="4.41678"  y="52.6537"/>
        <path class="cls-3" d="M6.54,57.97H0v.77s0,0,0,0c.67,0,1.21.54,1.21,1.21S.67,61.15,0,61.15c0,0,0,0,0,0v.77h6.54v-3.95ZM4.56,61.14c-.66,0-1.2-.54-1.2-1.2s.54-1.2,1.2-1.2,1.2.54,1.2,1.2-.54,1.2-1.2,1.2Z" gorn="0.9.11" id="connector7pin" />
        <path class="cls-3" d="M6.54,67.14c0-1.09-.89-1.98-1.98-1.98H0v.77s0,0,0,0c.67,0,1.21.54,1.21,1.21S.67,68.35,0,68.35c0,0,0,0,0,0v.77h4.56c1.09,0,1.98-.89,1.98-1.98ZM4.56,68.34c-.66,0-1.2-.54-1.2-1.2s.54-1.2,1.2-1.2,1.2.54,1.2,1.2-.54,1.2-1.2,1.2Z" gorn="0.9.12" id="connector8pin" />
        <rect fill="none" gorn="0.9.13" height="0.00792" id="connector8terminal" stroke="none" stroke-width="0" width="0.01308" x="4.49916"  y="67.136"/>
        <path class="cls-3" d="M6.54,74.34c0-1.09-.89-1.98-1.98-1.98H0v.77s0,0,0,0c.67,0,1.21.54,1.21,1.21S.67,75.55,0,75.55c0,0,0,0,0,0v.77h4.56c1.09,0,1.98-.89,1.98-1.98ZM4.56,75.54c-.66,0-1.2-.54-1.2-1.2s.54-1.2,1.2-1.2,1.2.54,1.2,1.2-.54,1.2-1.2,1.2Z" gorn="0.9.14" id="connector9pin" />
        <rect fill="none" gorn="0.9.15" height="0.00792" id="connector9terminal" stroke="none" stroke-width="0" width="0.01308" x="4.58154"  y="74.336"/>
        <path class="cls-3" d="M6.54,81.54c0-1.09-.89-1.98-1.98-1.98H0v.77s0,0,0,0c.67,0,1.21.54,1.21,1.21S.67,82.75,0,82.75c0,0,0,0,0,0v.77h4.56c1.09,0,1.98-.89,1.98-1.98ZM4.56,82.74c-.66,0-1.2-.54-1.2-1.2s.54-1.2,1.2-1.2,1.2.54,1.2,1.2-.54,1.2-1.2,1.2Z" gorn="0.9.16" id="connector10pin" />
        <rect fill="none" gorn="0.9.17" height="0.00792" id="connector10terminal" stroke="none" stroke-width="0" width="0.01308" x="4.49916"  y="81.536"/>
        <path class="cls-3" d="M6.54,88.74c0-1.09-.89-1.98-1.98-1.98H0v.77s0,0,0,0c.67,0,1.21.54,1.21,1.21S.67,89.95,0,89.95c0,0,0,0,0,0v.77h4.56c1.09,0,1.98-.89,1.98-1.98ZM4.56,89.94c-.66,0-1.2-.54-1.2-1.2s.54-1.2,1.2-1.2,1.2.54,1.2,1.2-.54,1.2-1.2,1.2Z" gorn="0.9.18" id="connector11pin" />
        <rect fill="none" gorn="0.9.19" height="0.00792" id="connector11terminal" stroke="none" stroke-width="0" width="0.01308" x="4.58154"  y="88.6537"/>
        <path class="cls-3" d="M6.54,93.97H0v.77s0,0,0,0c.67,0,1.21.54,1.21,1.21S.67,97.15,0,97.15c0,0,0,0,0,0v.77h6.54v-3.95ZM4.56,97.14c-.66,0-1.2-.54-1.2-1.2s.54-1.2,1.2-1.2,1.2.54,1.2,1.2-.54,1.2-1.2,1.2Z" gorn="0.9.20" id="connector12pin" />
        <rect fill="none" gorn="0.9.21" height="0.0079" id="connector12terminal" stroke="none" stroke-width="0" width="0.01308" x="4.58154"  y="95.8587"/>
        <path class="cls-3" d="M6.54,103.14c0-1.09-.89-1.98-1.98-1.98H0v.77s0,0,0,0c.67,0,1.21.54,1.21,1.21S.67,104.35,0,104.35c0,0,0,0,0,0v.77h4.56c1.09,0,1.98-.89,1.98-1.98ZM4.56,104.34c-.66,0-1.2-.54-1.2-1.2s.54-1.2,1.2-1.2,1.2.54,1.2,1.2-.54,1.2-1.2,1.2Z" gorn="0.9.22" id="connector13pin" />
        <rect fill="none" gorn="0.9.23" height="0.00792" id="connector13terminal" stroke="none" stroke-width="0" width="0.01308" x="4.49916"  y="103.136"/>
        <path class="cls-3" d="M6.54,110.34c0-1.09-.89-1.98-1.98-1.98H0v.77s0,0,0,0c.67,0,1.21.54,1.21,1.21S.67,111.55,0,111.55c0,0,0,0,0,0v.77h4.56c1.09,0,1.98-.89,1.98-1.98ZM4.56,111.54c-.66,0-1.2-.54-1.2-1.2s.54-1.2,1.2-1.2,1.2.54,1.2,1.2-.54,1.2-1.2,1.2Z" gorn="0.9.24" id="connector14pin" />
        <rect fill="none" gorn="0.9.25" height="0.00792" id="connector14terminal" stroke="none" stroke-width="0" width="0.01308" x="4.41678"  y="110.336"/>
        <path class="cls-3" d="M6.54,117.54c0-1.09-.89-1.98-1.98-1.98H0v.77s0,0,0,0c.67,0,1.21.54,1.21,1.21S.67,118.75,0,118.75c0,0,0,0,0,0v.77h4.56c1.09,0,1.98-.89,1.98-1.98ZM4.56,118.74c-.66,0-1.2-.54-1.2-1.2s.54-1.2,1.2-1.2,1.2.54,1.2,1.2-.54,1.2-1.2,1.2Z" gorn="0.9.26" id="connector15pin" />
        <rect fill="none" gorn="0.9.27" height="0.00792" id="connector15terminal" stroke="none" stroke-width="0" width="0.01308" x="4.49916"  y="117.618"/>
        <path class="cls-3" d="M6.54,124.74c0-1.09-.89-1.98-1.98-1.98H0v.77s0,0,0,0c.67,0,1.21.54,1.21,1.21S.67,125.95,0,125.95c0,0,0,0,0,0v.77h4.56c1.09,0,1.98-.89,1.98-1.98ZM4.56,125.94c-.66,0-1.2-.54-1.2-1.2s.54-1.2,1.2-1.2,1.2.54,1.2,1.2-.54,1.2-1.2,1.2Z" gorn="0.9.28" id="connector16pin" />
        <rect fill="none" gorn="0.9.29" height="0.00792" id="connector16terminal" stroke="none" stroke-width="0" width="0.01308" x="4.58154"  y="124.736"/>
        <path class="cls-3" d="M6.54,129.97H0v.77s0,0,0,0c.67,0,1.21.54,1.21,1.21s-.54,1.21-1.21,1.21c0,0,0,0,0,0v.77h6.54v-3.95ZM4.56,133.14c-.66,0-1.2-.54-1.2-1.2s.54-1.2,1.2-1.2,1.2.54,1.2,1.2-.54,1.2-1.2,1.2Z" gorn="0.9.30" id="connector17pin" />
        <rect fill="none" gorn="0.9.31" height="0.00792" id="connector17terminal" stroke="none" stroke-width="0" width="0.01308" x="4.49916"  y="131.946"/>
        <path class="cls-3" d="M6.54,139.14c0-1.09-.89-1.98-1.98-1.98H0v.77s0,0,0,0c.67,0,1.21.54,1.21,1.21s-.54,1.21-1.21,1.21c0,0,0,0,0,0v.77h4.56c1.09,0,1.98-.89,1.98-1.98ZM4.56,140.34c-.66,0-1.2-.54-1.2-1.2s.54-1.2,1.2-1.2,1.2.54,1.2,1.2-.54,1.2-1.2,1.2Z" gorn="0.9.32" id="connector18pin" />
        <rect fill="none" gorn="0.9.33" height="0.00792" id="connector18terminal" stroke="none" stroke-width="0" width="0.01308" x="4.66392"  y="139.054"/>
        <path class="cls-3" d="M6.54,146.34c0-1.09-.89-1.98-1.98-1.98H0v.77s0,0,0,0c.67,0,1.21.54,1.21,1.21s-.54,1.21-1.21,1.21c0,0,0,0,0,0v.77h4.56c1.09,0,1.98-.89,1.98-1.98ZM4.56,147.54c-.66,0-1.2-.54-1.2-1.2s.54-1.2,1.2-1.2,1.2.54,1.2,1.2-.54,1.2-1.2,1.2Z" gorn="0.9.34" id="connector19pin" />
        <rect fill="none" gorn="0.9.35" height="0.00792" id="connector19terminal" stroke="none" stroke-width="0" width="0.01308" x="4.58154"  y="146.336"/>
        <path class="cls-3" d="M54.96,18.72h4.56s0-.77,0-.77c0,0,0,0,0,0-.67,0-1.21-.54-1.21-1.21,0-.67.54-1.21,1.21-1.21,0,0,0,0,0,0v-.77s-4.56,0-4.56,0c-1.09,0-1.98.89-1.98,1.98s.89,1.98,1.98,1.98ZM53.77,16.75c0-.66.54-1.2,1.2-1.2s1.2.54,1.2,1.2c0,.66-.54,1.2-1.2,1.2s-1.2-.54-1.2-1.2Z" gorn="0.9.36" id="connector38pin" />
        <rect fill="none" gorn="0.9.37" height="0.00792" id="connector38terminal" stroke="none" stroke-width="0" width="0.01308" x="55.0078"  y="16.6537"/>
        <path class="cls-3" d="M52.99,25.92h6.54s0-.77,0-.77c0,0,0,0,0,0-.67,0-1.21-.54-1.21-1.21,0-.67.54-1.21,1.21-1.21,0,0,0,0,0,0v-.77s-6.54,0-6.54,0v3.95ZM53.77,23.95c0-.66.54-1.2,1.2-1.2s1.2.54,1.2,1.2c0,.66-.54,1.2-1.2,1.2s-1.2-.54-1.2-1.2Z" gorn="0.9.38" id="connector37pin" />
        <rect fill="none" gorn="0.9.39" height="0.00792" id="connector37terminal" stroke="none" stroke-width="0" width="0.01308" x="54.9354"  y="23.936"/>
        <path class="cls-3" d="M54.96,33.12h4.56s0-.77,0-.77c0,0,0,0,0,0-.67,0-1.21-.54-1.21-1.21s.54-1.21,1.21-1.21c0,0,0,0,0,0v-.77s-4.56,0-4.56,0c-1.09,0-1.98.89-1.98,1.98s.89,1.98,1.98,1.98ZM53.77,31.15c0-.66.54-1.2,1.2-1.2s1.2.54,1.2,1.2-.54,1.2-1.2,1.2-1.2-.54-1.2-1.2Z" gorn="0.9.40" id="connector36pin" />
        <rect fill="none" gorn="0.9.41" height="0.00792" id="connector36terminal" stroke="none" stroke-width="0" width="0.01308" x="55.0078"  y="31.136"/>
        <path class="cls-3" d="M54.96,40.32h4.56s0-.77,0-.77c0,0,0,0,0,0-.67,0-1.21-.54-1.21-1.21,0-.67.54-1.21,1.21-1.21,0,0,0,0,0,0v-.77s-4.56,0-4.56,0c-1.09,0-1.98.89-1.98,1.98s.89,1.98,1.98,1.98ZM53.77,38.34c0-.66.54-1.2,1.2-1.2s1.2.54,1.2,1.2c0,.66-.54,1.2-1.2,1.2s-1.2-.54-1.2-1.2Z" gorn="0.9.42" id="connector35pin" />
        <rect fill="none" gorn="0.9.43" height="0.00792" id="connector35terminal" stroke="none" stroke-width="0" width="0.01308" x="55.1725"  y="38.2537"/>
        <path class="cls-3" d="M54.96,47.52h4.56s0-.77,0-.77c0,0,0,0,0,0-.67,0-1.21-.54-1.21-1.21,0-.67.54-1.21,1.21-1.21,0,0,0,0,0,0v-.77s-4.56,0-4.56,0c-1.09,0-1.98.89-1.98,1.98s.89,1.98,1.98,1.98ZM53.77,45.54c0-.66.54-1.2,1.2-1.2s1.2.54,1.2,1.2c0,.66-.54,1.2-1.2,1.2s-1.2-.54-1.2-1.2Z" gorn="0.9.44" id="connector34pin" />
        <rect fill="none" gorn="0.9.45" height="0.00792" id="connector34terminal" stroke="none" stroke-width="0" width="0.01308" x="54.9254"  y="45.4537"/>
        <path class="cls-3" d="M54.96,54.72h4.56s0-.77,0-.77c0,0,0,0,0,0-.67,0-1.21-.54-1.21-1.21,0-.67.54-1.21,1.21-1.21,0,0,0,0,0,0v-.77s-4.56,0-4.56,0c-1.09,0-1.98.89-1.98,1.98s.89,1.98,1.98,1.98ZM53.77,52.74c0-.66.54-1.2,1.2-1.2s1.2.54,1.2,1.2-.54,1.2-1.2,1.2-1.2-.54-1.2-1.2Z" gorn="0.9.46" id="connector33pin" />
        <rect fill="none" gorn="0.9.47" height="0.00792" id="connector33terminal" stroke="none" stroke-width="0" width="0.01308" x="54.9254"  y="52.6537"/>
        <path class="cls-3" d="M52.99,61.92h6.54s0-.77,0-.77c0,0,0,0,0,0-.67,0-1.21-.54-1.21-1.21,0-.67.54-1.21,1.21-1.21,0,0,0,0,0,0v-.77s-6.54,0-6.54,0v3.95ZM53.77,59.94c0-.66.54-1.2,1.2-1.2s1.2.54,1.2,1.2-.54,1.2-1.2,1.2-1.2-.54-1.2-1.2Z" gorn="0.9.48" id="connector32pin" />
        <rect fill="none" gorn="0.9.49" height="0.00792" id="connector32terminal" stroke="none" stroke-width="0" width="0.01308" x="55.0178"  y="60.0184"/>
        <path class="cls-3" d="M54.96,69.12h4.56s0-.77,0-.77c0,0,0,0,0,0-.67,0-1.21-.54-1.21-1.21,0-.67.54-1.21,1.21-1.21,0,0,0,0,0,0v-.77s-4.56,0-4.56,0c-1.09,0-1.98.89-1.98,1.98s.89,1.98,1.98,1.98ZM53.77,67.14c0-.66.54-1.2,1.2-1.2s1.2.54,1.2,1.2c0,.66-.54,1.2-1.2,1.2s-1.2-.54-1.2-1.2Z" gorn="0.9.50" id="connector31pin" />
        <rect fill="none" gorn="0.9.51" height="0.00792" id="connector31terminal" stroke="none" stroke-width="0" width="0.01308" x="54.9254"  y="67.136"/>
        <path class="cls-3" d="M54.96,76.32h4.56s0-.77,0-.77c0,0,0,0,0,0-.67,0-1.21-.54-1.21-1.21,0-.67.54-1.21,1.21-1.21,0,0,0,0,0,0v-.77s-4.56,0-4.56,0c-1.09,0-1.98.89-1.98,1.98s.89,1.98,1.98,1.98ZM53.77,74.34c0-.66.54-1.2,1.2-1.2s1.2.54,1.2,1.2c0,.66-.54,1.2-1.2,1.2s-1.2-.54-1.2-1.2Z" gorn="0.9.52" id="connector30pin" />
        <rect fill="none" gorn="0.9.53" height="0.00792" id="connector30terminal" stroke="none" stroke-width="0" width="0.01308" x="55.0078"  y="74.336"/>
        <path class="cls-3" d="M54.96,83.52h4.56s0-.77,0-.77c0,0,0,0,0,0-.67,0-1.21-.54-1.21-1.21,0-.67.54-1.21,1.21-1.21,0,0,0,0,0,0v-.77s-4.56,0-4.56,0c-1.09,0-1.98.89-1.98,1.98s.89,1.98,1.98,1.98ZM53.77,81.54c0-.66.54-1.2,1.2-1.2s1.2.54,1.2,1.2-.54,1.2-1.2,1.2-1.2-.54-1.2-1.2Z" gorn="0.9.54" id="connector29pin" />
        <rect fill="none" gorn="0.9.55" height="0.00792" id="connector29terminal" stroke="none" stroke-width="0" width="0.01308" x="55.0078"  y="81.6184"/>
        <path class="cls-3" d="M54.96,90.72h4.56s0-.77,0-.77c0,0,0,0,0,0-.67,0-1.21-.54-1.21-1.21,0-.67.54-1.21,1.21-1.21,0,0,0,0,0,0v-.77s-4.56,0-4.56,0c-1.09,0-1.98.89-1.98,1.98s.89,1.98,1.98,1.98ZM53.77,88.74c0-.66.54-1.2,1.2-1.2s1.2.54,1.2,1.2c0,.66-.54,1.2-1.2,1.2s-1.2-.54-1.2-1.2Z" gorn="0.9.56" id="connector28pin" />
        <rect fill="none" gorn="0.9.57" height="0.00792" id="connector28terminal" stroke="none" stroke-width="0" width="0.01308" x="55.0078"  y="88.736"/>
        <path class="cls-3" d="M52.99,97.92h6.54s0-.77,0-.77c0,0,0,0,0,0-.67,0-1.21-.54-1.21-1.21,0-.67.54-1.21,1.21-1.21,0,0,0,0,0,0v-.77s-6.54,0-6.54,0v3.95ZM53.77,95.94c0-.66.54-1.2,1.2-1.2s1.2.54,1.2,1.2c0,.66-.54,1.2-1.2,1.2s-1.2-.54-1.2-1.2Z" gorn="0.9.58" id="connector27pin" />
        <rect fill="none" gorn="0.9.59" height="0.00792" id="connector27terminal" stroke="none" stroke-width="0" width="0.01308" x="55.0178"  y="95.936"/>
        <path class="cls-3" d="M54.96,105.12h4.56s0-.77,0-.77c0,0,0,0,0,0-.67,0-1.21-.54-1.21-1.21,0-.67.54-1.21,1.21-1.21,0,0,0,0,0,0v-.77s-4.56,0-4.56,0c-1.09,0-1.98.89-1.98,1.98s.89,1.98,1.98,1.98ZM53.77,103.14c0-.66.54-1.2,1.2-1.2s1.2.54,1.2,1.2-.54,1.2-1.2,1.2-1.2-.54-1.2-1.2Z" gorn="0.9.60" id="connector26pin" />
        <rect fill="none" gorn="0.9.61" height="0.00792" id="connector26terminal" stroke="none" stroke-width="0" width="0.01308" x="55.0078"  y="103.218"/>
        <path class="cls-3" d="M54.96,112.32h4.56s0-.77,0-.77c0,0,0,0,0,0-.67,0-1.21-.54-1.21-1.21,0-.67.54-1.21,1.21-1.21,0,0,0,0,0,0v-.77s-4.56,0-4.56,0c-1.09,0-1.98.89-1.98,1.98s.89,1.98,1.98,1.98ZM53.77,110.34c0-.66.54-1.2,1.2-1.2s1.2.54,1.2,1.2c0,.66-.54,1.2-1.2,1.2s-1.2-.54-1.2-1.2Z" gorn="0.9.62" id="connector25pin" />
        <rect fill="none" gorn="0.9.63" height="0.00792" id="connector25terminal" stroke="none" stroke-width="0" width="0.01308" x="55.0901"  y="110.336"/>
        <path class="cls-3" d="M54.96,119.52h4.56s0-.77,0-.77c0,0,0,0,0,0-.67,0-1.21-.54-1.21-1.21,0-.67.54-1.21,1.21-1.21,0,0,0,0,0,0v-.77s-4.56,0-4.56,0c-1.09,0-1.98.89-1.98,1.98s.89,1.98,1.98,1.98ZM53.77,117.54c0-.66.54-1.2,1.2-1.2s1.2.54,1.2,1.2c0,.66-.54,1.2-1.2,1.2s-1.2-.54-1.2-1.2Z" gorn="0.9.64" id="connector24pin" />
        <rect fill="none" gorn="0.9.65" height="0.00792" id="connector24terminal" stroke="none" stroke-width="0" width="0.01308" x="55.0901"  y="117.536"/>
        <path class="cls-3" d="M54.96,126.72h4.56s0-.77,0-.77c0,0,0,0,0,0-.67,0-1.21-.54-1.21-1.21,0-.67.54-1.21,1.21-1.21,0,0,0,0,0,0v-.77s-4.56,0-4.56,0c-1.09,0-1.98.89-1.98,1.98s.89,1.98,1.98,1.98ZM53.77,124.74c0-.66.54-1.2,1.2-1.2s1.2.54,1.2,1.2-.54,1.2-1.2,1.2-1.2-.54-1.2-1.2Z" gorn="0.9.66" id="connector23pin" />
        <rect fill="none" gorn="0.9.67" height="0.00792" id="connector23terminal" stroke="none" stroke-width="0" width="0.01308" x="55.0078"  y="124.736"/>
        <path class="cls-3" d="M52.99,133.92h6.54s0-.77,0-.77c0,0,0,0,0,0-.67,0-1.21-.54-1.21-1.21,0-.67.54-1.21,1.21-1.21,0,0,0,0,0,0v-.77s-6.54,0-6.54,0v3.95ZM53.77,131.94c0-.66.54-1.2,1.2-1.2s1.2.54,1.2,1.2-.54,1.2-1.2,1.2-1.2-.54-1.2-1.2Z" gorn="0.9.68" id="connector22pin" />
        <rect fill="none" gorn="0.9.69" height="0.00792" id="connector22terminal" stroke="none" stroke-width="0" width="0.01308" x="55.1001"  y="132.018"/>
        <path class="cls-3" d="M54.96,141.12h4.56s0-.77,0-.77c0,0,0,0,0,0-.67,0-1.21-.54-1.21-1.21,0-.67.54-1.21,1.21-1.21,0,0,0,0,0,0v-.77s-4.56,0-4.56,0c-1.09,0-1.98.89-1.98,1.98s.89,1.98,1.98,1.98ZM53.77,139.14c0-.66.54-1.2,1.2-1.2s1.2.54,1.2,1.2c0,.66-.54,1.2-1.2,1.2s-1.2-.54-1.2-1.2Z" gorn="0.9.70" id="connector21pin" />
        <rect fill="none" gorn="0.9.71" height="0.00792" id="connector21terminal" stroke="none" stroke-width="0" width="0.01308" x="55.0078"  y="139.136"/>
        <path class="cls-3" d="M54.96,148.32h4.56s0-.77,0-.77c0,0,0,0,0,0-.67,0-1.21-.54-1.21-1.21,0-.67.54-1.21,1.21-1.21,0,0,0,0,0,0v-.77s-4.56,0-4.56,0c-1.09,0-1.98.89-1.98,1.98s.89,1.98,1.98,1.98ZM53.77,146.34c0-.66.54-1.2,1.2-1.2s1.2.54,1.2,1.2c0,.66-.54,1.2-1.2,1.2s-1.2-.54-1.2-1.2Z" gorn="0.9.72" id="connector20pin" />
        <rect fill="none" gorn="0.9.73" height="0.00792" id="connector20terminal" stroke="none" stroke-width="0" width="0.01308" x="55.0078"  y="146.418"/>
        <path class="cls-3" d="M22.56,144.37c-1.09,0-1.98.89-1.98,1.98v3.89h.77s0,0,0,0c0-.67.54-1.21,1.21-1.21s1.21.54,1.21,1.21c0,0,0,0,0,0h.77v-3.89c0-1.09-.89-1.98-1.98-1.98ZM23.76,146.34c0,.66-.54,1.2-1.2,1.2s-1.2-.54-1.2-1.2.54-1.2,1.2-1.2,1.2.54,1.2,1.2Z" gorn="0.9.74" id="connector40pin" />
        <path class="cls-3" d="M27.79,144.43v5.81h.77s0,0,0,0c0-.67.54-1.21,1.21-1.21s1.21.54,1.21,1.21c0,0,0,0,0,0h.77v-5.81h-3.95ZM30.96,146.34c0,.66-.54,1.2-1.2,1.2s-1.2-.54-1.2-1.2.54-1.2,1.2-1.2,1.2.54,1.2,1.2Z" gorn="0.9.75" id="connector41pin" />
        <path class="cls-3" d="M36.96,144.37c-1.09,0-1.98.89-1.98,1.98v3.89h.77s0,0,0,0c0-.67.54-1.21,1.21-1.21s1.21.54,1.21,1.21c0,0,0,0,0,0h.77v-3.89c0-1.09-.89-1.98-1.98-1.98ZM38.16,146.34c0,.66-.54,1.2-1.2,1.2s-1.2-.54-1.2-1.2.54-1.2,1.2-1.2,1.2.54,1.2,1.2Z" gorn="0.9.76" id="connector42pin" />
        <path class="cls-3" d="M54.96,11.52h4.56s0-.77,0-.77c0,0,0,0,0,0-.67,0-1.21-.54-1.21-1.21,0-.67.54-1.21,1.21-1.21,0,0,0,0,0,0v-.77s-4.56,0-4.56,0c-1.09,0-1.98.89-1.98,1.98s.89,1.98,1.98,1.98ZM53.77,9.54c0-.66.54-1.2,1.2-1.2s1.2.54,1.2,1.2-.54,1.2-1.2,1.2-1.2-.54-1.2-1.2Z" gorn="0.9.77" id="connector39pin" />
        <rect fill="none" gorn="0.9.78" height="0.00792" id="connector39terminal" stroke="none" stroke-width="0" width="0.01308" x="55.0078"  y="9.45366"/>
        <path class="cls-3" d="M6.54,9.54c0-1.09-.89-1.98-1.98-1.98H0v.77s0,0,0,0c.67,0,1.21.54,1.21,1.21S.67,10.75,0,10.75c0,0,0,0,0,0v.77h4.56c1.09,0,1.98-.89,1.98-1.98ZM4.56,10.74c-.66,0-1.2-.54-1.2-1.2s.54-1.2,1.2-1.2,1.2.54,1.2,1.2-.54,1.2-1.2,1.2Z" gorn="0.9.79" id="connector0pin" />
        <rect fill="none" gorn="0.9.80" height="0.00792" id="connector0terminal" stroke="none" stroke-width="0" width="0.01308" x="4.64925"  y="9.62809"/>
    </g>
</svg>
